<svg width="25" height="24" viewBox="0 0 25 24" fill="none" xmlns="http://www.w3.org/2000/svg"> <path fill-rule="evenodd" clip-rule="evenodd" d="M14.3403 22.8467C19.5393 21.9711 23.5 17.4481 23.5 12C23.5 5.92487 18.5751 1 12.5 1C6.42487 1 1.5 5.92487 1.5 12C1.5 17.3537 5.32467 21.8141 10.3907 22.798V14.5211H8.021V11.3614H10.3907V9.29975C10.3907 6.90632 12.2628 5.16851 14.4904 5.04213C16.2914 4.94734 17.4999 5.04213 17.4999 5.04213V8.99169C17.4999 8.99169 16.5125 8.94429 15.8411 8.99169C14.8142 9.06278 14.3403 9.7816 14.3403 10.532V11.3614H17.4999L17.2156 14.5211H14.3403V22.8467Z" fill="black"></path> </svg>