<svg width="24" height="24" viewBox="0 0 24 24" fill="none" xmlns="http://www.w3.org/2000/svg"> <g clip-path="url(#clip0_5011_35005)"> <path d="M2.5 6C2.5 4.61929 3.61929 3.5 5 3.5H19C20.3807 3.5 21.5 4.61929 21.5 6V15C21.5 16.3807 20.3807 17.5 19 17.5H15.3028C15.0066 17.5 14.7171 17.5877 14.4707 17.7519L6.87269 22.8173C6.46545 23.0888 5.951 22.674 6.12996 22.2184L7.44712 18.8657C7.70484 18.2096 7.2212 17.5 6.51637 17.5H5C3.61929 17.5 2.5 16.3807 2.5 15V6Z" stroke="#262433"></path> <circle cx="7.5" cy="10.5" r="1" stroke="#262433"></circle> <circle cx="12.5" cy="10.5" r="1" stroke="#262433"></circle> <circle cx="17.5" cy="10.5" r="1" stroke="#262433"></circle> </g> <defs> <clipPath id="clip0_5011_35005"> <rect width="24" height="24" fill="white"></rect> </clipPath> </defs> </svg>