<svg width="50" height="50" viewBox="0 0 50 50" fill="none" xmlns="http://www.w3.org/2000/svg"> <path d="M25.2884 22.9948H38.7767C38.9256 23.809 39 24.5868 39 25.3281C39 27.9653 38.4357 30.3199 37.307 32.3919C36.1783 34.464 34.569 36.0833 32.4791 37.25C30.3891 38.4167 27.9922 39 25.2884 39C23.3411 39 21.4868 38.6324 19.7256 37.8971C17.9643 37.1619 16.445 36.1684 15.1674 34.9167C13.8899 33.6649 12.876 32.1762 12.1256 30.4505C11.3752 28.7248 11 26.908 11 25C11 23.092 11.3752 21.2752 12.1256 19.5495C12.876 17.8238 13.8899 16.3351 15.1674 15.0833C16.445 13.8316 17.9643 12.8381 19.7256 12.1029C21.4868 11.3676 23.3411 11 25.2884 11C29.0093 11 32.2031 12.2214 34.8698 14.6641L30.9814 18.3281C29.4558 16.8819 27.5581 16.1589 25.2884 16.1589C23.6884 16.1589 22.2093 16.5538 20.8512 17.3438C19.493 18.1337 18.4171 19.2062 17.6233 20.5612C16.8295 21.9162 16.4326 23.3958 16.4326 25C16.4326 26.6042 16.8295 28.0838 17.6233 29.4388C18.4171 30.7938 19.493 31.8663 20.8512 32.6562C22.2093 33.4462 23.6884 33.8411 25.2884 33.8411C26.3674 33.8411 27.3597 33.6953 28.2651 33.4036C29.1705 33.112 29.9147 32.7474 30.4977 32.3099C31.0806 31.8724 31.5891 31.3741 32.0233 30.8151C32.4574 30.2561 32.7767 29.7274 32.9814 29.2292C33.186 28.7309 33.3256 28.2569 33.4 27.8073H25.2884V22.9948Z" fill="black"></path> <rect x="0.5" y="0.5" width="49" height="49" rx="24.5" stroke="#E1E1E5"></rect> </svg>