<svg width="24" height="24" viewBox="0 0 24 24" fill="none" xmlns="http://www.w3.org/2000/svg"> <g clip-path="url(#clip0_2368_24231)"> <g clip-path="url(#clip1_2368_24231)"> <path d="M0 24L1.69 17.84C0.65 16.03 0.1 13.99 0.1 11.89C0.1 5.33 5.44 0 11.99 0C15.17 0 18.16 1.24 20.4 3.49C22.65 5.74 23.88 8.73 23.88 11.9C23.88 18.46 18.54 23.79 11.99 23.79C10 23.79 8.04 23.29 6.3 22.34L0 23.99L0 24ZM6.6 20.19C8.28 21.19 9.88 21.78 11.99 21.78C17.44 21.78 21.88 17.35 21.88 11.89C21.88 6.43 17.46 2 12 2C6.55 2.01 2.11 6.44 2.11 11.89C2.11 14.11 2.76 15.78 3.86 17.52L2.86 21.17L6.6 20.19ZM17.99 14.73C17.92 14.61 17.72 14.53 17.42 14.38C17.12 14.23 15.66 13.51 15.39 13.41C15.12 13.31 14.92 13.26 14.72 13.56C14.52 13.86 13.95 14.53 13.78 14.72C13.61 14.91 13.43 14.94 13.14 14.79C12.84 14.64 11.88 14.33 10.75 13.31C9.87 12.52 9.27 11.55 9.1 11.25C8.93 10.95 9.08 10.79 9.23 10.64C9.36 10.51 9.53 10.29 9.68 10.12C9.83 9.95 9.88 9.82 9.98 9.63C10.08 9.43 10.03 9.26 9.96 9.11C9.89 8.96 9.29 7.5 9.04 6.9C8.8 6.32 8.55 6.4 8.37 6.39H7.8C7.6 6.38 7.28 6.45 7.01 6.75C6.74 7.05 5.97 7.77 5.97 9.23C5.97 10.69 7.04 12.11 7.18 12.3C7.33 12.5 9.28 15.5 12.26 16.79C12.97 17.1 13.52 17.28 13.95 17.42C14.66 17.65 15.31 17.61 15.82 17.54C16.39 17.46 17.58 16.82 17.83 16.13C18.08 15.44 18.08 14.84 18 14.72L17.99 14.73Z" fill="black"></path> </g> </g> <defs> <clipPath id="clip0_2368_24231"> <rect width="24" height="24" fill="white"></rect> </clipPath> <clipPath id="clip1_2368_24231"> <rect width="23.89" height="24" fill="white"></rect> </clipPath> </defs> </svg>