<svg class="flex-shrink-0" width="24" height="24" viewBox="0 0 24 24" fill="none" xmlns="http://www.w3.org/2000/svg"> <circle cx="11.9989" cy="11.9989" r="10.4091" stroke="#223330"></circle> <path d="M14.0197 9.20548L14.1353 9.52383L14.4738 9.53457L19.0167 9.67866C19.4856 9.69354 19.6777 10.2879 19.3061 10.5744L15.7219 13.3382L15.4516 13.5466L15.5473 13.8743L16.8142 18.2129C16.9453 18.6621 16.4427 19.0292 16.0547 18.7677L12.2813 16.2239L12.0018 16.0355L11.7223 16.2239L7.94884 18.7677C7.56083 19.0292 7.05824 18.6621 7.1894 18.2129L8.45628 13.8743L8.55196 13.5466L8.28164 13.3382L4.69742 10.5744C4.32587 10.2879 4.51795 9.69354 4.98689 9.67866L9.52976 9.53457L9.86828 9.52383L9.98388 9.20548L11.5318 4.94273C11.6913 4.50361 12.3123 4.50361 12.4718 4.94273L14.0197 9.20548Z" stroke="#223330"></path> </svg>