<svg width="64" height="64" viewBox="0 0 64 64" fill="none" xmlns="http://www.w3.org/2000/svg"> <rect x="9" y="24" width="45" height="33" rx="4" stroke="#1F725B" stroke-width="2" stroke-linecap="round" stroke-linejoin="round"></rect> <path d="M49.6459 22.3541L46.477 25.523C45.6719 26.3281 45.7004 27.6421 46.5398 28.4115L49.5884 31.206C50.3777 31.9296 51.5969 31.9031 52.3541 31.1459L55.523 27.977C56.3281 27.1719 56.2996 25.8579 55.4602 25.0885L52.4116 22.294C51.6223 21.5704 50.4031 21.5969 49.6459 22.3541Z" fill="white"></path> <path d="M16 31L27.8028 41.6963C30.1589 43.8315 33.7716 43.7579 36.0388 41.5285L62 16" stroke="white" stroke-width="2" stroke-linecap="round" stroke-linejoin="round"></path> <path d="M16 31L27.8028 41.6963C30.1589 43.8315 33.7716 43.7579 36.0388 41.5285L62 16" stroke="#1F725B" stroke-width="2" stroke-linecap="round" stroke-linejoin="round"></path> <path d="M14 11L18 17" stroke="#1F725B" stroke-width="2" stroke-linecap="round" stroke-linejoin="round"></path> <path d="M31.5 8V16.5" stroke="#1F725B" stroke-width="2" stroke-linecap="round" stroke-linejoin="round"></path> <path d="M47.5 10L45 16.5" stroke="#1F725B" stroke-width="2" stroke-linecap="round" stroke-linejoin="round"></path> </svg>