<svg width="50" height="50" viewBox="0 0 50 50" fill="none" xmlns="http://www.w3.org/2000/svg"> <path d="M39 25.0856C39 17.3063 32.732 11 25 11C17.268 11 11 17.3063 11 25.0856C11 32.1161 16.1196 37.9434 22.8125 39V29.1572H19.2578V25.0856H22.8125V21.9824C22.8125 18.4522 24.9026 16.5022 28.1005 16.5022C29.6322 16.5022 31.2344 16.7773 31.2344 16.7773V20.2437H29.469C27.7299 20.2437 27.1875 21.3294 27.1875 22.4434V25.0856H31.0703L30.4496 29.1572H27.1875V39C33.8804 37.9434 39 32.1161 39 25.0856Z" fill="#0F0D1A"></path> <rect x="0.5" y="0.5" width="49" height="49" rx="24.5" stroke="#E1E1E5"></rect> </svg>