<svg width="24" height="24" viewBox="0 0 24 24" fill="none" xmlns="http://www.w3.org/2000/svg"> <g clip-path="url(#clip0_2368_24234)"> <g clip-path="url(#clip1_2368_24234)"> <path fill-rule="evenodd" clip-rule="evenodd" d="M12 0C5.37 0 0 5.37 0 12C0 17.08 3.16 21.43 7.63 23.17C7.52 22.22 7.43 20.76 7.67 19.73C7.89 18.79 9.08 13.76 9.08 13.76C9.08 13.76 8.72 13.04 8.72 11.98C8.72 10.31 9.69 9.07 10.89 9.07C11.91 9.07 12.41 9.84 12.41 10.76C12.41 11.79 11.76 13.33 11.42 14.75C11.14 15.94 12.02 16.92 13.2 16.92C15.33 16.92 16.97 14.67 16.97 11.43C16.97 8.56 14.91 6.55 11.96 6.55C8.55 6.55 6.54 9.11 6.54 11.76C6.54 12.79 6.94 13.9 7.43 14.5C7.53 14.62 7.54 14.72 7.51 14.85L7.18 16.21C7.13 16.43 7.01 16.48 6.78 16.37C5.28 15.67 4.34 13.48 4.34 11.72C4.34 7.94 7.09 4.46 12.27 4.46C16.43 4.46 19.67 7.43 19.67 11.39C19.67 15.35 17.06 18.85 13.44 18.85C12.22 18.85 11.08 18.22 10.69 17.47L9.94 20.32C9.67 21.36 8.94 22.67 8.45 23.47C9.57 23.82 10.77 24 12 24C18.63 24 24 18.63 24 12C24 5.37 18.63 0 12 0Z" fill="black"></path> </g> </g> <defs> <clipPath id="clip0_2368_24234"> <rect width="24" height="24" fill="white"></rect> </clipPath> <clipPath id="clip1_2368_24234"> <rect width="24" height="24" fill="white"></rect> </clipPath> </defs> </svg>