<svg class="cmsp264-mx-auto cmsp264-mb-10 cmsp264-empty:bg-[#E2E8F0] cmsp264-empty:h-[50px]" width="50" height="50" viewBox="0 0 50 50" fill="none" xmlns="http://www.w3.org/2000/svg"> <g clip-path="url(#clip0_4088_4474)"> <path d="M24.8384 48.6136C28.5275 48.6136 29.6841 46.4569 29.6841 46.4569C34.6962 47.9797 38.287 46.0549 38.287 46.0549L38.1207 44.6944L40.6229 43.2565C34.0234 17.6771 29.2003 13.3945 29.2003 13.3945H20.8015C20.8015 13.3945 15.9785 17.6771 9.37891 43.2565L11.8812 44.6944L11.7148 46.0549C11.7148 46.0549 15.3057 47.972 20.3177 46.4569C20.3177 46.4569 21.6407 48.6136 24.8384 48.6136V48.6136Z" stroke="#781710" stroke-linecap="round" stroke-linejoin="round"></path> <path d="M11.8789 44.694C11.8789 44.694 15.5075 29.6586 18.5163 23.6367" stroke="#781710" stroke-linecap="round" stroke-linejoin="round"></path> <path d="M20.3086 46.4571C20.3086 46.4571 21.8886 32.3648 22.1607 29.5742" stroke="#781710" stroke-linecap="round" stroke-linejoin="round"></path> <path d="M29.6904 46.4572L26.2734 27.5645" stroke="#781710" stroke-linecap="round" stroke-linejoin="round"></path> <path d="M38.136 44.694C38.136 44.694 34.6736 32.4493 32.3906 28.7852" stroke="#781710" stroke-linecap="round" stroke-linejoin="round"></path> <path d="M29.2129 11.8717C29.3112 11.8717 29.3868 11.7944 29.3868 11.6939C29.3868 9.49075 29.984 6.1822 29.984 6.1822L30.7778 8.98828L33.7563 7.92924C33.7563 5.74157 32.8113 4.15687 32.0705 3.25243C31.6094 2.68812 30.9139 2.37891 30.1957 2.37891H27.8446C27.8446 3.37611 27.3079 6.04305 25.1307 6.04305C22.9536 6.04305 22.4546 3.37611 22.4546 2.37891H20.1036C19.3854 2.37891 18.6899 2.68812 18.2288 3.25243C17.4879 4.15687 16.543 5.74157 16.543 7.92924L19.5215 8.98828L20.3152 6.1822C20.3152 6.1822 20.92 9.49848 20.9124 11.6939C20.9124 11.7944 20.988 11.8717 21.0863 11.8717H29.2054H29.2129Z" stroke="#781710" stroke-linecap="round" stroke-linejoin="round"></path> </g> <defs> <clipPath id="clip0_4088_4474"> <rect width="32" height="47" fill="white" transform="translate(9 2)"></rect> </clipPath> </defs> </svg>