<svg class="cmsp264-mx-auto cmsp264-empty:bg-[#E2E8F0] cmsp264-empty:h-[50px]" width="50" height="50" viewBox="0 0 50 50" fill="none" xmlns="http://www.w3.org/2000/svg"> <path d="M5.04 46.7905H45.97C46.82 46.7905 47.51 46.1005 47.51 45.2505V39.7505C47.51 38.9005 46.82 38.2105 45.97 38.2105C45.12 38.2105 44.43 37.5205 44.43 36.6705V7.77047C44.43 6.92047 43.74 6.23047 42.89 6.23047H5.04C4.19 6.23047 3.5 6.92047 3.5 7.77047V27.4705C3.5 28.3205 4.19 29.0105 5.04 29.0105H14.12C14.97 29.0105 15.66 28.3205 15.66 27.4705V20.6105C15.66 19.7605 16.35 19.0705 17.2 19.0705H29.35C30.2 19.0705 30.89 19.7605 30.89 20.6105V35.7905C30.89 36.6405 30.2 37.3305 29.35 37.3305H5.04C4.19 37.3305 3.5 38.0205 3.5 38.8705V45.2705C3.5 46.1205 4.19 46.8105 5.04 46.8105V46.7905Z" stroke="#0F0D1A" stroke-linecap="round" stroke-linejoin="round"></path> <path d="M10.2808 6.24023V17.5402C10.2808 18.3902 9.59078 19.0802 8.74078 19.0802H7.59078C6.74078 19.0802 6.05078 18.3902 6.05078 17.5402V6.24023" stroke="#0F0D1A" stroke-linecap="round" stroke-linejoin="round"></path> <path d="M10.9209 29.0098V31.4398C10.9209 32.2898 10.2309 32.9798 9.38094 32.9798H9.00094C8.15094 32.9798 7.46094 32.2898 7.46094 31.4398V29.0098" stroke="#0F0D1A" stroke-linecap="round" stroke-linejoin="round"></path> <path d="M9.19141 32.9805V35.3205" stroke="#0F0D1A" stroke-linecap="square" stroke-linejoin="round"></path> <path d="M44.4414 16.3398H45.9814C46.8314 16.3398 47.5214 17.0298 47.5214 17.8798V23.5998C47.5214 24.4498 46.8314 25.1398 45.9814 25.1398H44.4414" stroke="#0F0D1A" stroke-linecap="round" stroke-linejoin="round"></path> <path d="M3.5 41.2891H47.51" stroke="#0F0D1A" stroke-linecap="round" stroke-linejoin="round"></path> <path d="M37.5605 33.5494C39.3996 33.5494 40.8905 30.093 40.8905 25.8294C40.8905 21.5657 39.3996 18.1094 37.5605 18.1094C35.7214 18.1094 34.2305 21.5657 34.2305 25.8294C34.2305 30.093 35.7214 33.5494 37.5605 33.5494Z" stroke="#0F0D1A" stroke-linecap="round" stroke-linejoin="round"></path> <path d="M15.3281 10.3906H35.6681" stroke="#0F0D1A" stroke-linecap="square" stroke-linejoin="round"></path> <path d="M20.3281 14.6602H40.6681" stroke="#0F0D1A" stroke-linecap="square" stroke-linejoin="round"></path> <path d="M3.5 22.6699H15.33" stroke="#0F0D1A" stroke-linecap="round" stroke-linejoin="round"></path> <path d="M32.4102 3.5V6.24" stroke="#0F0D1A" stroke-linecap="square" stroke-linejoin="round"></path> <path d="M25.5 3.5V6.24" stroke="#0F0D1A" stroke-linecap="square" stroke-linejoin="round"></path> <path d="M39.0703 2.5V6.24" stroke="#0F0D1A" stroke-linecap="square" stroke-linejoin="round"></path> </svg>