<svg class="cmsp264-mx-auto cmsp264-mb-10 cmsp264-empty:bg-[#E2E8F0] cmsp264-empty:h-[50px]" width="50" height="50" viewBox="0 0 50 50" fill="none" xmlns="http://www.w3.org/2000/svg"> <path d="M14.0071 30.1695C16.2827 30.1695 18.1275 28.1772 18.1275 25.7195C18.1275 23.2619 16.2827 21.2695 14.0071 21.2695C11.7315 21.2695 9.88672 23.2619 9.88672 25.7195C9.88672 28.1772 11.7315 30.1695 14.0071 30.1695Z" stroke="#781710" stroke-linecap="round" stroke-linejoin="round"></path> <path d="M20.1946 34.8099C19.2501 32.0999 16.8427 30.1699 14.0094 30.1699C11.1761 30.1699 8.76866 32.0999 7.82422 34.8099" stroke="#781710" stroke-linecap="round" stroke-linejoin="round"></path> <path d="M20.3252 12.7812H7.70486C6.26278 12.7812 5.09375 14.0438 5.09375 15.6013V43.5513C5.09375 45.1087 6.26278 46.3713 7.70486 46.3713H20.3252C21.7673 46.3713 22.9363 45.1087 22.9363 43.5513V15.6013C22.9363 14.0438 21.7673 12.7812 20.3252 12.7812Z" stroke="#781710" stroke-linecap="round" stroke-linejoin="round"></path> <path d="M42.6649 18.25H38.9705C38.6279 18.25 38.2853 18.36 37.9983 18.57L27.1001 26.44L32.739 18.44C32.7946 18.36 32.739 18.25 32.6557 18.25H27.3594C26.3964 18.25 25.6094 17.4 25.6094 16.36V6.39C25.6094 5.35 26.3964 4.5 27.3594 4.5H42.6742C43.6372 4.5 44.4242 5.35 44.4242 6.39V16.36C44.4242 17.4 43.6372 18.25 42.6742 18.25H42.6649Z" stroke="#781710" stroke-linecap="round" stroke-linejoin="round"></path> <path d="M32.7148 14.1392V8.93923C32.7148 8.35923 33.3074 7.99923 33.7611 8.30923L37.6593 10.9092C38.0945 11.1992 38.0945 11.8792 37.6593 12.1692L33.7611 14.7692C33.3074 15.0692 32.7148 14.7192 32.7148 14.1392V14.1392Z" stroke="#781710" stroke-linecap="round" stroke-linejoin="round"></path> <path d="M14.0077 41.7604C14.7389 41.7604 15.3317 41.1202 15.3317 40.3304C15.3317 39.5406 14.7389 38.9004 14.0077 38.9004C13.2764 38.9004 12.6836 39.5406 12.6836 40.3304C12.6836 41.1202 13.2764 41.7604 14.0077 41.7604Z" stroke="#781710" stroke-linecap="round" stroke-linejoin="round"></path> </svg>