<svg width="21" height="20" viewBox="0 0 21 20" fill="none" xmlns="http://www.w3.org/2000/svg"> <path opacity="0.5" d="M2.5 15.7156V8L10 17L4.76433 17.6981C3.56536 17.858 2.5 16.9252 2.5 15.7156Z" fill="#99B1A1"></path> <path d="M5.79447 17.0598L2.5 8L11.5 17L8.41684 18.2333C7.36818 18.6527 6.18045 18.1212 5.79447 17.0598Z" fill="#4B6754"></path> <path d="M3.5 1.5H7.67157C8.0694 1.5 8.45093 1.65804 8.73223 1.93934L16.7322 9.93934C17.318 10.5251 17.3179 11.475 16.7321 12.0608L12.5608 16.2321C11.975 16.8179 11.0251 16.818 10.4393 16.2322L2.43934 8.23223C2.15804 7.95093 2 7.5694 2 7.17157V3C2 2.17157 2.67157 1.5 3.5 1.5Z" stroke="#223330"></path> <circle cx="5.83347" cy="5.33298" r="1.43406" fill="#223330"></circle> </svg>