<svg class="cmsp264-mx-auto cmsp264-empty:bg-[#E2E8F0] cmsp264-empty:h-[50px]" width="50" height="51" viewBox="0 0 50 50" fill="none" xmlns="http://www.w3.org/2000/svg"> <rect x="12.5" y="4.5" width="25" height="41" rx="4.5" stroke="#262433"></rect> <circle cx="25.5" cy="40.5" r="2" stroke="#262433"></circle> <g clip-path="url(#clip0_2_12638)"> <circle cx="25" cy="18" r="5.4" stroke="#262433" stroke-width="1.2" stroke-miterlimit="10" stroke-linecap="round" stroke-linejoin="round"></circle> <path d="M34.4 33C34.4 38.1915 30.1915 42.4 25 42.4C19.8085 42.4 15.6 38.1915 15.6 33C15.6 27.8085 19.8085 23.6 25 23.6C30.1915 23.6 34.4 27.8085 34.4 33Z" stroke="#262433" stroke-width="1.2" stroke-miterlimit="10" stroke-linecap="round" stroke-linejoin="round"></path> <path d="M16 31.5H34" stroke="black"></path> </g> <path d="M8.78958 19.0132C8.42588 20.286 7.9167 23.2025 8.78958 24.686" stroke="black" stroke-linecap="round" stroke-linejoin="round"></path> <path d="M41.4067 24.6926C41.7258 23.4078 42.1329 20.4753 41.2088 19.0232" stroke="black" stroke-linecap="round" stroke-linejoin="round"></path> <path d="M7 17C6.24538 19.0193 5.1889 23.6464 7 26" stroke="black" stroke-linecap="round" stroke-linejoin="round"></path> <path d="M43.3153 26.0239C43.9272 23.9569 44.6584 19.2674 42.6875 17.0458" stroke="black" stroke-linecap="round" stroke-linejoin="round"></path> <defs> <clipPath id="clip0_2_12638"> <rect width="20" height="20" fill="white" transform="translate(15 12)"></rect> </clipPath> </defs> </svg>