<svg width="24" height="24" viewBox="0 0 24 24" fill="none" xmlns="http://www.w3.org/2000/svg"> <path d="M8.12649 10.6455C8.47779 11.2534 9.1309 12.0749 10.0961 13.0517C11.0645 14.0346 12.2686 14.929 13.8274 15.6931C13.9429 15.747 14.0523 15.747 14.1507 15.7096C14.299 15.6557 14.4505 15.5373 14.5989 15.395C14.7145 15.2841 14.8582 15.1073 15.0081 14.914C15.6079 14.1574 16.3498 13.218 17.3978 13.6885C17.4212 13.699 17.4384 13.711 17.4618 13.72L20.9572 15.6482C20.9681 15.6542 20.9806 15.6646 20.99 15.6706C21.4507 15.9748 21.6413 16.4437 21.646 16.9756C21.646 17.5164 21.4382 18.1247 21.1337 18.6386C20.7307 19.3173 20.1372 19.7668 19.4531 20.0634C18.8019 20.3511 18.0772 20.5054 17.3806 20.6043C16.2873 20.7586 15.2627 20.6597 14.2147 20.3511C13.1901 20.0469 12.1578 19.545 11.0301 18.8768L10.9473 18.8259C10.4304 18.5158 9.87121 18.1846 9.32301 17.7936C7.31759 16.3403 5.27314 14.2413 3.94088 11.9311C2.82416 9.99238 2.21504 7.89937 2.54772 5.90523C2.73201 4.81153 3.22087 3.81672 4.07364 3.16049C4.81708 2.58518 5.81822 2.27055 7.11455 2.38142C7.26293 2.39191 7.39569 2.47431 7.46597 2.59716L9.70722 6.23185C9.95612 6.65236 10.0758 7.04388 9.8962 7.4484C9.74783 7.77951 9.44795 8.08514 9.03875 8.36981C8.91849 8.46869 8.66141 8.70685 8.35723 8.9795C7.71764 9.59271 7.83641 10.1436 8.12649 10.6455Z" stroke="#0F0D1A"></path> </svg>