<svg width="24" height="24" viewBox="0 0 24 24" fill="none" xmlns="http://www.w3.org/2000/svg"> <rect width="24" height="24" fill="white"></rect> <path d="M19.6828 16.6877C18.8489 18.0544 17.6654 19.174 16.2546 19.9309C14.8437 20.6877 13.2565 21.0545 11.6566 20.9934C10.0567 20.9323 8.50201 20.4456 7.15297 19.5833C5.80393 18.721 4.70933 17.5145 3.98207 16.0881C3.2548 14.6618 2.92121 13.0672 3.01568 11.4689C3.11016 9.87065 3.62929 8.32651 4.51952 6.99575C5.40976 5.665 6.63888 4.59582 8.08011 3.89849C9.52134 3.20115 11.1225 2.90091 12.7185 3.02872L12 12L19.6828 16.6877Z" fill="#F0F0F2"></path> <circle cx="12" cy="12" r="9" stroke="#262433" stroke-width="1.2" stroke-miterlimit="10" stroke-linecap="round" stroke-linejoin="round"></circle> <path d="M12 5.5L11.5 12.5L15.5 15" stroke="#262433" stroke-linecap="round"></path> </svg>