<svg width="374" height="33" viewBox="0 0 374 33" fill="none" xmlns="http://www.w3.org/2000/svg">
<rect x="0.201509" y="0.201509" width="51.1832" height="31.8384" rx="3.82866" fill="white"/>
<rect x="0.201509" y="0.201509" width="51.1832" height="31.8384" rx="3.82866" stroke="#E1E1E5" stroke-width="0.403017"/>
<path d="M25.7351 13.5047C25.7103 15.5257 27.48 16.6536 28.8131 17.3241C30.1829 18.0122 30.643 18.4533 30.6377 19.0686C30.6273 20.0103 29.5451 20.4258 28.5321 20.442C26.7651 20.4703 25.7378 19.9495 24.9209 19.5556L24.2844 22.6303C25.1039 23.0202 26.6213 23.3602 28.1949 23.375C31.8885 23.375 34.3052 21.493 34.3182 18.5748C34.3326 14.8714 29.3555 14.6663 29.3895 13.0109C29.4013 12.509 29.8653 11.9734 30.8821 11.8372C31.3853 11.7684 32.7747 11.7158 34.3496 12.4645L34.9678 9.48968C34.1209 9.17128 33.0322 8.86638 31.6768 8.86638C28.2002 8.86638 25.7548 10.7741 25.7351 13.5047ZM40.9082 9.12271C40.2337 9.12271 39.6652 9.5288 39.4116 10.1521L34.1353 23.1564H37.8262L38.5608 21.0612H43.0713L43.4973 23.1564H46.7505L43.9117 9.12271H40.9082ZM41.4244 12.9138L42.4896 18.1835H39.5724L41.4244 12.9138ZM21.26 9.12271L18.3506 23.1564H21.8677L24.7758 9.12271H21.26ZM16.0568 9.12271L12.3959 18.6746L10.915 10.5528C10.7412 9.64618 10.055 9.12271 9.29303 9.12271H3.30826L3.22461 9.53015C4.45319 9.80538 5.84907 10.2492 6.69471 10.7241C7.21228 11.0142 7.35997 11.2678 7.52988 11.9573L10.3347 23.1564H14.0518L19.7504 9.12271H16.0568Z" fill="#1637BD"/>
<g clip-path="url(#clip0_10281_96957)">
<rect x="57.1582" width="51.5862" height="32.2414" rx="4.03017" fill="white"/>
<g clip-path="url(#clip1_10281_96957)">
<path d="M87.5295 24.3439H78.375V7.89258H87.5295V24.3439Z" fill="#FF5F00"/>
<path d="M78.956 16.1203C78.956 12.783 80.5189 9.8109 82.9521 7.89536C81.1099 6.44248 78.8319 5.65539 76.4875 5.65821C70.7085 5.65821 66.0254 10.3427 66.0254 16.1203C66.0254 21.898 70.7085 26.5825 76.4861 26.5825C78.8319 26.5853 81.1099 25.7982 82.9507 24.3453C80.5189 22.4298 78.956 19.4577 78.956 16.1203Z" fill="#EB001B"/>
<path d="M99.8779 16.1203C99.8779 21.898 95.1948 26.5825 89.4172 26.5825C87.0714 26.5853 84.7934 25.7982 82.9512 24.3453C85.3844 22.4298 86.9473 19.4577 86.9473 16.1203C86.9473 12.783 85.3844 9.8109 82.9512 7.89536C84.7934 6.44248 87.0714 5.65539 89.4172 5.65821C95.1948 5.65821 99.8779 10.3427 99.8779 16.1203Z" fill="#F79E1B"/>
</g>
</g>
<rect x="57.3597" y="0.201509" width="51.1832" height="31.8384" rx="3.82866" stroke="#E1E1E5" stroke-width="0.403017"/>
<g clip-path="url(#clip2_10281_96957)">
<rect x="114.318" width="51.5862" height="32.2414" rx="4.03017" fill="white"/>
<path d="M114.318 -8.86523H165.905V18.1745L163.351 22.9722L165.905 26.523V42.721H114.318V16.4691V14.9128V12.8784V-8.86523Z" fill="#016FD0"/>
<path d="M124.307 26.1863V18.1074H132.861L133.778 19.3038L134.727 18.1074H165.904V25.7951C165.904 25.7951 164.964 26.1782 164.024 26.1863H146.832L145.797 24.9128V26.1863H142.407V24.0124C142.407 24.0124 141.943 24.3158 140.942 24.3158H139.788V26.1863H134.654L133.738 24.9642L132.807 26.1863H124.307Z" fill="white"/>
<path d="M114.318 12.0186L116.247 7.52148H119.583L120.678 10.0406V7.52148H124.825L125.477 9.34221L126.108 7.52148H144.724V8.43682C144.724 8.43682 145.702 7.52148 147.31 7.52148L153.35 7.54259L154.426 10.0287V7.52148H157.897L158.852 8.94956V7.52148H162.354V15.6004H158.852L157.936 14.1677V15.6004H152.838L152.325 14.3268H150.954L150.45 15.6004H146.992C145.608 15.6004 144.724 14.7037 144.724 14.7037V15.6004H139.51L138.475 14.3268V15.6004H119.089L118.577 14.3268H117.21L116.702 15.6004H114.318V12.0186Z" fill="white"/>
<path d="M116.93 8.51562L114.328 14.5648H116.022L116.502 13.3535H119.293L119.77 14.5648H121.502L118.902 8.51562H116.93ZM117.892 9.92346L118.743 12.0402H117.039L117.892 9.92346Z" fill="#016FD0"/>
<path d="M121.682 14.5648V8.51562L124.089 8.52457L125.489 12.4247L126.855 8.51562H129.243V14.5648H127.731V10.1075L126.128 14.5648H124.801L123.194 10.1075V14.5648H121.682Z" fill="#016FD0"/>
<path d="M130.277 14.5648V8.51562H135.212V9.86874H131.806V10.9035H135.133V12.177H131.806V13.2515H135.212V14.5648H130.277Z" fill="#016FD0"/>
<path d="M136.088 8.51562V14.5648H137.6V12.4158H138.237L140.05 14.5648H141.898L139.908 12.3362C140.725 12.2673 141.568 11.5663 141.568 10.4781C141.568 9.20518 140.568 8.51562 139.453 8.51562H136.088ZM137.6 9.86874H139.329C139.744 9.86874 140.045 10.1931 140.045 10.5055C140.045 10.9074 139.654 11.1423 139.351 11.1423H137.6V9.86874Z" fill="#016FD0"/>
<path d="M143.73 14.5648H142.186V8.51562H143.73V14.5648Z" fill="#016FD0"/>
<path d="M147.39 14.5648H147.057C145.444 14.5648 144.465 13.2943 144.465 11.5651C144.465 9.79318 145.433 8.51562 147.47 8.51562H149.141V9.94833H147.408C146.582 9.94833 145.997 10.5935 145.997 11.58C145.997 12.7515 146.666 13.2436 147.629 13.2436H148.027L147.39 14.5648Z" fill="#016FD0"/>
<path d="M150.68 8.51562L148.078 14.5648H149.772L150.252 13.3535H153.043L153.52 14.5648H155.252L152.652 8.51562H150.68ZM151.642 9.92346L152.493 12.0402H150.789L151.642 9.92346Z" fill="#016FD0"/>
<path d="M155.43 14.5648V8.51562H157.352L159.807 12.3163V8.51562H161.32V14.5648H159.459L156.942 10.6647V14.5648H155.43Z" fill="#016FD0"/>
<path d="M125.344 25.1508V19.1016H130.279V20.4547H126.872V21.4894H130.199V22.7629H126.872V23.8375H130.279V25.1508H125.344Z" fill="#016FD0"/>
<path d="M149.523 25.1508V19.1016H154.458V20.4547H151.052V21.4894H154.363V22.7629H151.052V23.8375H154.458V25.1508H149.523Z" fill="#016FD0"/>
<path d="M130.467 25.1508L132.87 22.1635L130.41 19.1016H132.315L133.781 20.9944L135.251 19.1016H137.081L134.654 22.1262L137.061 25.1508H135.156L133.733 23.2878L132.345 25.1508H130.467Z" fill="#016FD0"/>
<path d="M137.242 19.1016V25.1508H138.794V23.2405H140.386C141.733 23.2405 142.754 22.5259 142.754 21.1362C142.754 19.985 141.953 19.1016 140.583 19.1016H137.242ZM138.794 20.4696H140.471C140.906 20.4696 141.217 20.7363 141.217 21.1661C141.217 21.5698 140.907 21.8625 140.466 21.8625H138.794V20.4696Z" fill="#016FD0"/>
<path d="M143.41 19.1016V25.1508H144.922V23.0017H145.559L147.372 25.1508H149.221L147.231 22.9221C148.047 22.8532 148.89 22.1523 148.89 21.0641C148.89 19.7911 147.891 19.1016 146.776 19.1016H143.41ZM144.922 20.4547H146.651C147.066 20.4547 147.368 20.7791 147.368 21.0914C147.368 21.4933 146.977 21.7282 146.674 21.7282H144.922V20.4547Z" fill="#016FD0"/>
<path d="M155.159 25.1508V23.8375H158.185C158.633 23.8375 158.827 23.5955 158.827 23.33C158.827 23.0757 158.634 22.8186 158.185 22.8186H156.818C155.629 22.8186 154.967 22.0943 154.967 21.0069C154.967 20.0369 155.573 19.1016 157.34 19.1016H160.285L159.648 20.4626H157.101C156.614 20.4626 156.464 20.7181 156.464 20.9621C156.464 21.2129 156.649 21.4894 157.021 21.4894H158.454C159.779 21.4894 160.354 22.2411 160.354 23.2256C160.354 24.2839 159.714 25.1508 158.382 25.1508H155.159Z" fill="#016FD0"/>
<path d="M160.71 25.1508V23.8375H163.736C164.184 23.8375 164.378 23.5955 164.378 23.33C164.378 23.0757 164.185 22.8186 163.736 22.8186H162.369C161.18 22.8186 160.518 22.0943 160.518 21.0069C160.518 20.0369 161.124 19.1016 162.891 19.1016H165.836L165.199 20.4626H162.652C162.165 20.4626 162.015 20.7181 162.015 20.9621C162.015 21.2129 162.2 21.4894 162.572 21.4894H164.005C165.33 21.4894 165.905 22.2411 165.905 23.2256C165.905 24.2839 165.264 25.1508 163.933 25.1508H160.71Z" fill="#016FD0"/>
</g>
<rect x="114.6" y="0.282112" width="51.022" height="31.6772" rx="3.74806" stroke="#D9D9D9" stroke-width="0.564224"/>
<rect x="171.477" width="67.71" height="32.8966" rx="4.03017" fill="#330A0E"/>
<path fill-rule="evenodd" clip-rule="evenodd" d="M179.618 21.4277C177.629 20.1776 176.312 17.9681 176.312 15.446C176.312 11.5503 179.459 8.38867 183.328 8.38867C185.736 8.38867 187.862 9.60972 189.128 11.4776C191.11 12.7277 192.433 14.9372 192.433 17.4593C192.433 21.355 189.287 24.5094 185.418 24.5094C183.01 24.5094 180.891 23.2883 179.625 21.4349L179.618 21.4277ZM185.418 11.0779C188.926 11.0779 191.768 13.9342 191.768 17.4593C191.768 20.9843 188.926 23.8407 185.418 23.8407C181.91 23.8407 179.068 20.9843 179.068 17.4593C179.068 13.9342 181.91 11.0779 185.418 11.0779ZM187.653 10.7726C186.517 9.71147 184.998 9.06461 183.328 9.06461C179.827 9.06461 176.978 11.921 176.978 15.446C176.978 17.2122 177.694 18.8184 178.851 19.9741C178.554 19.1891 178.395 18.346 178.395 17.4593C178.395 13.5636 181.541 10.4019 185.418 10.4019C186.199 10.4019 186.951 10.5328 187.66 10.7726H187.653Z" fill="white"/>
<path d="M182.979 15.593V14.889H186.125C185.949 14.218 185.388 13.91 184.574 13.91H182.979V13.206H188.534V13.91H186.477C186.851 14.174 186.983 14.515 187.049 14.889H188.534V15.593H187.082C187.016 17.023 185.96 17.639 184.53 17.639H184.068L187.511 21.5H186.356L182.979 17.661V16.891H184.233C185.278 16.891 186.158 16.649 186.158 15.593H182.979Z" fill="white"/>
<path d="M204.055 7.38836V9.0907C203.659 8.59741 203.04 8.31691 202.45 8.31691C201.144 8.31691 200.303 9.48727 200.303 10.8317C200.303 12.1472 201.183 13.2885 202.44 13.2885C203.059 13.2885 203.659 12.9693 204.055 12.5147V14.2074C203.514 14.4589 202.991 14.6427 202.401 14.6427C200.351 14.6427 198.832 12.8823 198.832 10.8608C198.832 8.74249 200.332 6.96277 202.43 6.96277C203.011 6.96277 203.562 7.11753 204.055 7.38836ZM208.104 10.145V9.70006H209.439V14.4492H208.104V14.014H208.085C207.785 14.3912 207.292 14.604 206.798 14.604C205.512 14.604 204.612 13.4723 204.612 12.0505C204.612 10.7157 205.483 9.5453 206.779 9.5453C207.272 9.5453 207.775 9.7581 208.104 10.145ZM207.108 13.4046C207.756 13.4046 208.24 12.7759 208.24 12.0698C208.24 11.3831 207.775 10.7447 207.098 10.7447C206.45 10.7447 205.986 11.3831 205.986 12.0698C205.986 12.7662 206.46 13.4046 207.108 13.4046ZM213.438 10.0386L212.857 10.8221C212.664 10.6383 212.413 10.4932 212.142 10.4932C211.919 10.4932 211.697 10.6673 211.697 10.8994C211.697 11.1413 211.919 11.2573 212.354 11.4314C212.577 11.5185 212.78 11.5959 212.935 11.6829C213.428 11.9634 213.651 12.3406 213.651 12.921C213.651 13.9269 212.857 14.604 211.803 14.604C211.155 14.604 210.546 14.3138 210.13 13.8108L210.749 13.008C211.02 13.3079 211.358 13.5594 211.755 13.5594C212.055 13.5594 212.296 13.3562 212.296 13.0467C212.296 12.7565 212.074 12.6115 211.619 12.4374C211.242 12.2923 210.952 12.1665 210.759 11.9828C210.497 11.7409 210.401 11.4411 210.401 11.0832C210.401 10.1934 211.029 9.5453 211.91 9.5453C212.413 9.5453 213.051 9.70006 213.438 10.0386ZM214.387 6.24701H215.741V10.0966H215.761C216.041 9.70974 216.505 9.5453 216.999 9.5453C218.111 9.5453 218.643 10.2417 218.643 11.5088V14.4492H217.289V11.6732C217.289 10.6963 216.854 10.6286 216.544 10.6286C216.07 10.6286 215.741 10.9285 215.741 11.9924V14.4492H214.387V6.24701ZM227.012 12.0795C227.012 13.5594 225.987 14.604 224.517 14.604C223.046 14.604 222.021 13.5594 222.021 12.0795C222.021 10.5899 223.046 9.5453 224.517 9.5453C226.006 9.5453 227.012 10.6189 227.012 12.0795ZM224.517 13.4046C225.184 13.4046 225.639 12.7565 225.639 12.0795C225.639 11.3927 225.194 10.7447 224.507 10.7447C223.869 10.7447 223.395 11.3734 223.395 12.0795C223.395 12.7565 223.859 13.4046 224.517 13.4046ZM231.905 11.5088V14.4492H230.551V11.7023C230.551 10.7544 230.183 10.6286 229.816 10.6286C229.313 10.6286 229.003 10.9478 229.003 11.9924V14.4492H227.649V9.70006H229.003V10.1353H229.022C229.303 9.70974 229.767 9.5453 230.261 9.5453C231.373 9.5453 231.905 10.2417 231.905 11.5088ZM199.181 17.1562H201.26C202.111 17.1562 203.04 17.4657 203.717 18.1525C204.384 18.8295 204.732 19.7871 204.732 20.8124C204.732 21.8086 204.394 22.7469 203.717 23.4336C203.04 24.1204 202.131 24.4492 201.25 24.4492H199.181V17.1562ZM200.602 18.3943V23.2111H200.805C202.459 23.2111 203.262 22.389 203.262 20.8027C203.262 19.2164 202.469 18.3943 200.805 18.3943H200.602ZM209.612 22.2923H206.488C206.498 23.1048 206.846 23.569 207.426 23.569C207.881 23.569 208.152 23.2982 208.335 22.921L209.583 23.1241C209.245 24.0817 208.432 24.604 207.426 24.604C205.975 24.604 205.056 23.569 205.056 22.1182C205.056 20.6093 205.879 19.5453 207.358 19.5453C208.771 19.5453 209.612 20.4932 209.612 22.1762V22.2923ZM206.527 21.4508H208.335C208.248 20.8608 207.881 20.4932 207.426 20.4932C207.001 20.4932 206.623 20.8027 206.527 21.4508ZM210.241 16.247H211.595V24.4492H210.241V16.247ZM214.112 17.7075C214.112 18.1621 213.754 18.5104 213.309 18.5104C212.854 18.5104 212.506 18.1621 212.506 17.7075C212.506 17.2723 212.854 16.9047 213.309 16.9047C213.764 16.9047 214.112 17.2723 214.112 17.7075ZM212.632 19.7001H213.986V24.4492H212.632V19.7001ZM214.353 19.7001H215.842L216.955 22.3793L217.932 19.7001H219.412L217.226 24.5459H216.529L214.353 19.7001ZM223.951 22.2923H220.826C220.836 23.1048 221.184 23.569 221.765 23.569C222.219 23.569 222.49 23.2982 222.674 22.921L223.922 23.1241C223.583 24.0817 222.771 24.604 221.765 24.604C220.314 24.604 219.395 23.569 219.395 22.1182C219.395 20.6093 220.217 19.5453 221.697 19.5453C223.109 19.5453 223.951 20.4932 223.951 22.1762V22.2923ZM220.865 21.4508H222.674C222.587 20.8608 222.219 20.4932 221.765 20.4932C221.339 20.4932 220.962 20.8027 220.865 21.4508ZM227.694 19.6614L227.529 20.9188C227.365 20.8027 227.171 20.7447 226.968 20.7447C226.281 20.7447 225.933 21.1703 225.933 22.2633V24.4492H224.579V19.7001H225.933V20.1934H225.953C226.223 19.7774 226.63 19.5453 227.133 19.5453C227.326 19.5453 227.5 19.5937 227.694 19.6614ZM227.86 19.7001H229.398L230.53 22.3987L231.749 19.7001H233.257L229.804 26.9834H228.315L229.882 23.7238L227.86 19.7001Z" fill="white"/>
<rect x="244.96" y="0.2" width="64.6" height="31.6" rx="4.1" stroke="#E1E1E5" stroke-width="0.4"/>
<path d="M297.2 11.7374L295.138 13.6695L295.07 13.6173C295.306 12.7376 295.541 11.8539 295.78 10.9742C296.378 8.78496 296.976 6.59975 297.578 4.41052C297.578 4.40248 297.578 4.39445 297.578 4.39043C297.578 4.28198 297.634 4.18155 297.73 4.12933C297.873 4.10523 297.869 4.26993 297.921 4.36232C298.228 4.93272 298.46 5.53928 298.818 6.08156C299.157 6.90905 299.552 7.73252 299.979 8.51582C300.031 8.59616 300.063 8.68855 300.063 8.78496C300.063 8.94965 299.979 9.10631 299.839 9.19468C298.942 10.0342 298.073 10.8898 297.2 11.7374Z" fill="#F07A25"/>
<path d="M297.202 11.7344C298.079 10.8869 298.948 10.0313 299.837 9.19573C299.977 9.10736 300.061 8.9507 300.061 8.78601C300.061 8.6896 300.033 8.59319 299.977 8.51687C299.546 7.73357 299.156 6.9101 298.817 6.08261L299.431 4.00586C299.686 4.49994 299.897 4.90565 300.101 5.31538C300.615 6.34773 301.117 7.38812 301.652 8.41243C301.723 8.51286 301.759 8.63336 301.759 8.75789C301.759 8.96275 301.656 9.15556 301.48 9.26402C300.021 10.6258 298.589 12.0196 297.15 13.4015C297.058 13.522 296.935 13.6144 296.791 13.6626C296.974 13.0319 297.114 12.3852 297.202 11.7344Z" fill="#0C8D48"/>
<path fill-rule="evenodd" clip-rule="evenodd" d="M264.871 8.88861C265.174 9.0292 265.37 9.33448 265.37 9.66789C265.37 9.80447 265.338 9.94104 265.274 10.0615C265.035 10.8449 264.839 11.6362 264.624 12.4275C264.564 13.1747 263.942 13.7491 263.2 13.7491C263.117 13.7491 263.033 13.7411 262.949 13.725C259.652 13.725 256.358 13.729 253.06 13.733C252.801 13.733 252.706 13.7089 252.789 13.4157C253.639 10.3869 254.476 7.35414 255.309 4.32135C255.329 4.14059 255.481 4 255.66 4C255.676 4 255.696 4 255.712 4.00402C259.105 4.01205 262.503 4.00803 265.896 4.01607C265.944 4.00803 265.992 4 266.039 4C266.418 4 266.721 4.3093 266.721 4.6869C266.721 4.7833 266.701 4.87569 266.661 4.96406C266.406 5.97633 266.127 6.98056 265.836 7.9848C265.681 8.42666 265.322 8.76408 264.871 8.88861ZM286.81 28.0775H284.88L287.559 18.3324H289.485L286.81 28.0775ZM270.788 27.4669C270.685 27.8525 270.33 28.1217 269.935 28.1217H259.998C259.727 28.1217 259.524 28.0293 259.392 27.8445C259.261 27.6597 259.229 27.4267 259.309 27.1536L261.733 18.3565H263.663L261.498 26.2136H269.209L271.375 18.3565H273.3L270.788 27.4669ZM285.809 18.6377C285.677 18.4529 285.47 18.3605 285.191 18.3605H274.596L274.074 20.2726H283.712L283.149 22.3132H275.438V22.3092H273.512L271.913 28.1257H273.839L274.911 24.2252H283.576C283.847 24.2252 284.102 24.1329 284.342 23.9481C284.581 23.7633 284.736 23.5303 284.812 23.2572L285.885 19.3567C285.964 19.0595 285.941 18.8225 285.809 18.6377ZM272.89 7.92454C273.998 7.92454 275.107 7.90446 276.215 7.93659C276.239 7.93659 276.263 7.94061 276.287 7.94061C276.566 7.94061 276.793 7.7237 276.813 7.44653C277.073 6.45033 277.352 5.45815 277.595 4.45793C277.603 4.20085 277.81 4 278.061 4C278.097 4 278.129 4.00402 278.165 4.01205C278.349 4.0241 278.532 4.03214 278.719 4.03214C278.899 4.03214 279.082 4.0241 279.262 4.01205C279.557 3.99598 279.624 4.08436 279.541 4.37759C279.122 5.87189 278.723 7.37422 278.317 8.86852C277.926 10.3106 277.527 11.7527 277.148 13.1988C277.14 13.5 276.897 13.7411 276.598 13.7411C276.554 13.7411 276.51 13.737 276.466 13.725C276.283 13.7089 276.1 13.7009 275.916 13.7009C275.749 13.7009 275.581 13.7089 275.414 13.721C275.131 13.733 275.087 13.6406 275.163 13.3755C275.466 12.3311 275.737 11.2787 276.036 10.2343C276.124 9.92899 276.084 9.80447 275.725 9.80848C273.468 9.82455 271.207 9.82455 268.95 9.8125C268.926 9.80848 268.902 9.80848 268.878 9.80848C268.631 9.80848 268.428 10.0013 268.416 10.2503C268.153 11.3028 267.846 12.3472 267.571 13.3956C267.555 13.5884 267.395 13.733 267.204 13.733C267.18 13.733 267.156 13.729 267.132 13.725C266.941 13.7129 266.741 13.7089 266.55 13.7089C266.35 13.7089 266.151 13.717 265.956 13.729C265.545 13.7571 265.613 13.5442 265.685 13.2871C266.127 11.6683 266.57 10.0455 267.008 8.42666C267.379 7.06492 267.75 5.70318 268.113 4.34144C268.125 4.15666 268.276 4.01205 268.46 4.01205C268.476 4.01205 268.496 4.01205 268.512 4.01607C268.93 4.03615 269.353 4.03615 269.772 4.01607C270.063 4.00402 270.095 4.11247 270.023 4.36956C269.724 5.44208 269.449 6.52263 269.142 7.59515C269.058 7.88036 269.13 7.93659 269.397 7.93258C270.561 7.91651 271.725 7.92454 272.89 7.92454ZM281.869 4.04419C282.009 4.04419 282.148 4.04419 282.288 4.04419C282.846 4.04419 282.85 4.04419 282.707 4.56237C281.925 7.41439 281.144 10.2704 280.358 13.1225C280.183 13.7611 280.175 13.7611 279.525 13.7611C279.218 13.7611 278.907 13.7531 278.6 13.7652C278.325 13.7772 278.269 13.6848 278.345 13.4117C279.09 10.7364 279.824 8.0571 280.558 5.37781C280.649 5.09662 280.725 4.81142 280.781 4.5222C280.781 4.51417 280.781 4.51015 280.781 4.50212C280.781 4.23298 280.996 4.02008 281.263 4.02008C281.311 4.02008 281.363 4.02812 281.407 4.04419C281.491 4.05222 281.578 4.05222 281.666 4.05222C281.73 4.0482 281.802 4.0482 281.869 4.04419ZM292.667 9.25816C292.344 9.54738 292.021 9.82857 291.706 10.1218C290.498 11.2385 289.298 12.3633 288.094 13.488C287.894 13.6768 287.791 13.7089 287.635 13.4318C286.746 11.8611 285.841 10.3026 284.94 8.73998C284.912 8.69981 284.876 8.65964 284.84 8.62751C284.704 8.80023 284.617 9.01313 284.597 9.23406C284.218 10.5918 283.851 11.9535 283.492 13.3193C283.484 13.5523 283.297 13.733 283.066 13.733C283.038 13.733 283.01 13.729 282.982 13.725C282.579 13.6929 282.168 13.7129 281.762 13.721C281.574 13.725 281.471 13.6969 281.538 13.4559C282.384 10.3829 283.225 7.30593 284.062 4.22897C284.082 4.19683 284.106 4.16469 284.134 4.13658C284.298 4.2852 284.429 4.46596 284.521 4.66681C285.661 6.57887 286.798 8.49093 287.934 10.407C288.189 10.8368 288.181 10.8288 288.564 10.4994C290.622 8.73195 292.679 6.9645 294.745 5.20508C295.159 4.85159 295.57 4.49408 296.021 4.10846C296.029 4.15666 296.033 4.20888 296.033 4.2611C296.033 4.41776 295.993 4.57442 295.921 4.711C295.139 7.59917 294.346 10.4833 293.568 13.3675C293.556 13.5723 293.385 13.733 293.182 13.733C293.158 13.733 293.134 13.729 293.114 13.725C292.914 13.7129 292.711 13.7089 292.512 13.7089C292.32 13.7089 292.125 13.7129 291.934 13.725C291.599 13.7451 291.571 13.6206 291.654 13.3273C292.009 12.066 292.348 10.7966 292.691 9.53131C292.711 9.49516 292.723 9.45499 292.723 9.41482C292.723 9.35457 292.703 9.29833 292.667 9.25816ZM257.167 5.91206C259.317 5.94018 261.458 5.90804 263.603 5.90804C263.982 5.90804 264.289 6.21735 264.289 6.59895C264.289 6.69536 264.269 6.79177 264.229 6.88416C264.121 7.4867 263.599 7.92856 262.989 7.92856C260.868 7.92454 258.742 7.92454 256.617 7.93659C256.266 7.93659 256.254 7.796 256.342 7.52285C256.482 7.12116 256.597 6.71545 256.685 6.3017C256.689 6.08077 256.868 5.90804 257.088 5.90804C257.116 5.90403 257.14 5.90804 257.167 5.91206ZM255.995 9.8125C258.128 9.8125 260.266 9.81652 262.403 9.82455C263.137 9.82857 263.428 10.5074 262.997 11.2064C262.766 11.6 262.347 11.8411 261.893 11.8411C259.799 11.8411 257.71 11.8169 255.616 11.8451C255.293 11.8491 255.142 11.8049 255.273 11.4273C255.421 11.0015 255.525 10.5596 255.632 10.1258C255.66 9.94506 255.816 9.8125 255.995 9.8125Z" fill="#66686C"/>
<path fill-rule="evenodd" clip-rule="evenodd" d="M292.82 18.3496L295.257 23.2342L290.129 28.1188L290.739 25.9055L293.542 23.2342L292.21 20.5629L292.82 18.3496Z" fill="#0E8635"/>
<path fill-rule="evenodd" clip-rule="evenodd" d="M291.104 18.3496L293.54 23.2342L288.412 28.1188L291.104 18.3496Z" fill="#E97208"/>
<rect x="315.534" y="0.2" width="58.2667" height="31.6" rx="4.1" stroke="#E1E1E5" stroke-width="0.4"/>
<path fill-rule="evenodd" clip-rule="evenodd" d="M353.014 13.4963H355.337V16.8683L357.346 13.4963H359.478L355.18 20.3134C355.18 20.3134 354.781 20.8852 354.286 21.1876C353.879 21.4364 353.379 21.4251 353.227 21.4353C352.378 21.4285 351.353 21.4264 351.353 21.4264L351.847 19.8014L352.647 19.8001C352.647 19.8001 353.013 19.766 353.154 19.6012C353.289 19.4441 353.358 19.287 353.358 19.0566C353.358 18.7112 353.014 13.4962 353.014 13.4962V13.4963ZM328.875 14.1697C328.552 14.8541 327.55 14.7763 327.55 14.7763L326.382 14.7713L326.809 13.322C326.809 13.322 327.853 13.3256 328.365 13.3256C328.913 13.3256 329.084 13.7279 328.876 14.1696L328.875 14.1697ZM331.528 13.1821C331.727 11.7441 330.342 11.381 328.844 11.381H324.909L322.586 19.1162H325.087L325.867 16.4899L327.27 16.5004C327.27 16.5004 327.849 16.4696 327.86 16.9664C327.872 17.4962 327.431 18.469 327.459 19.1162H330.028L330.022 18.9102C330.022 18.9102 329.809 18.8585 329.833 18.5845C329.842 18.4705 329.98 18.1096 330.161 17.6231C330.269 17.4085 330.433 16.8996 330.418 16.4852C330.399 15.968 330.044 15.7279 329.532 15.56C331.129 15.2178 331.528 13.1823 331.528 13.1823L331.528 13.1821ZM332.096 13.4963H334.377L333.437 16.798C333.437 16.798 333.203 17.5343 333.957 17.5911C334.552 17.6361 334.995 16.9868 335.141 16.547C335.331 15.9694 336.073 13.4962 336.073 13.4962H338.423L336.635 19.1161H334.583L334.835 18.3132C334.835 18.3132 333.788 19.4793 332.233 19.3394C330.851 19.2154 330.732 18.2994 330.971 17.1566C331.089 16.5956 332.096 13.4963 332.096 13.4963ZM343.81 14.1874C343.484 15.0168 342.588 14.9191 342.588 14.9191L341.363 14.9194L341.847 13.276C341.847 13.276 342.622 13.2797 343.133 13.2797C343.76 13.2797 343.987 13.7345 343.81 14.1873V14.1874ZM346.381 13.4195C346.58 11.9813 345.38 11.3809 343.882 11.3809H339.947L337.624 19.1161H340.125L340.828 16.7313L342.82 16.7424C342.82 16.7424 345.906 16.8617 346.381 13.4195H346.381ZM348.483 17.9712C348.093 18.0617 347.619 18.1109 347.525 17.7866C347.267 16.8979 349.544 16.6377 349.544 16.6377C349.56 17.4475 348.783 17.9014 348.483 17.9712H348.483ZM351.928 16.3445C352.229 15.4097 352.609 14.5245 352.303 14.0339C351.835 13.2829 350.989 13.217 349.751 13.217C348.383 13.217 346.694 13.4544 346.144 15.116H348.421C348.421 15.116 348.628 14.4902 349.483 14.5296C350.24 14.5645 350.198 15.04 349.919 15.3029C349.43 15.7636 348.08 15.5081 346.585 15.9821C345.278 16.3963 344.821 17.966 345.105 18.5925C345.38 19.2 345.892 19.2773 346.583 19.3394C347.693 19.4391 348.544 18.8736 348.941 18.5417C348.941 18.9102 348.951 19.1161 348.951 19.1161H351.347L351.341 18.9101C351.341 18.9101 351.128 18.8583 351.152 18.5843C351.169 18.3836 351.583 17.4182 351.928 16.3445H351.928Z" fill="#382A8D"/>
<path fill-rule="evenodd" clip-rule="evenodd" d="M362.457 12.1973L359.775 20.7213L364.796 16.4592L362.457 12.1973Z" fill="#1D8546"/>
<path fill-rule="evenodd" clip-rule="evenodd" d="M360.739 12.1973L358.057 20.7213L363.077 16.4592L360.739 12.1973Z" fill="#EC6B00"/>
<path fill-rule="evenodd" clip-rule="evenodd" d="M365.733 10.6484C365.223 10.6484 364.808 11.0274 364.808 11.4932C364.808 11.9589 365.223 12.3379 365.733 12.3379C366.243 12.3379 366.658 11.9589 366.658 11.4932C366.658 11.0272 366.243 10.6484 365.733 10.6484ZM365.719 11.8397V11.1813H365.863L366.033 11.6474C366.049 11.6908 366.06 11.7233 366.068 11.7449C366.076 11.7209 366.088 11.6857 366.106 11.6392L366.278 11.1813H366.407V11.8397H366.315V11.2885L366.105 11.8397H366.019L365.811 11.2792V11.8397H365.719ZM365.24 11.8397V11.2591H365.003V11.1814H365.574V11.2591H365.335V11.8397H365.24ZM365.733 12.4215C365.172 12.4215 364.717 12.005 364.717 11.4931C364.717 10.9811 365.173 10.5645 365.733 10.5645C366.293 10.5645 366.749 10.9811 366.749 11.4931C366.749 12.0049 366.293 12.4215 365.733 12.4215Z" fill="black"/>
<defs>
<clipPath id="clip0_10281_96957">
<rect x="57.1582" width="51.5862" height="32.2414" rx="4.03017" fill="white"/>
</clipPath>
<clipPath id="clip1_10281_96957">
<rect width="33.8535" height="33.8535" fill="white" transform="translate(66.0254 -0.806641)"/>
</clipPath>
<clipPath id="clip2_10281_96957">
<rect x="114.318" width="51.5862" height="32.2414" rx="4.03017" fill="white"/>
</clipPath>
</defs>
</svg>
