<svg width="180" height="55" viewBox="0 0 180 55" fill="none" xmlns="http://www.w3.org/2000/svg">
<path fill-rule="evenodd" clip-rule="evenodd" d="M102.8 23.2522C102.8 27.3353 102.073 33.5027 99.5529 35.9347H99.5547C98.5296 36.9227 96.7669 37.4718 95.062 37.4718V0.5282H97.4593V0H87.5284V0.5282H89.4466V37.4718H87.5284V38H103.548V22.6271H102.8V23.2522ZM13.8325 0.00292969V0.53113H11.9757V19.4095L17.5278 5.46163C18.4047 3.06003 18.4372 2.02073 17.9726 1.25123C17.4869 0.525838 16.8164 0.528157 16.0505 0.530806C16.0039 0.530967 15.957 0.53113 15.9098 0.53113V0.00292969H22.7202V0.53113C20.2433 0.964329 19.5726 1.87633 18.5927 4.66173L15.4885 12.7101L22.8666 37.4709H24.4124V37.9991H15.5446V37.4709H17.4049L11.9739 19.9852V37.4709H13.263V37.9991H4.5V37.4709H6.35673V0.53113H4.5V0.00292969H13.8325ZM46.1106 37.9953H52.5305V37.3892C49.8114 37.1821 49.3576 34.7311 50.9503 25.5199L51.142 24.4844H57.1063L59.1673 37.4975H56.9599V37.9953H65.8403V37.4975C65.8403 37.4975 64.705 37.507 64.3 37.4975C63.9836 36.2074 57.4263 0.00666066 57.4263 0.00666066H54.3818L50.3266 25.3128C48.7881 34.7311 47.9601 37.1916 46.1196 37.3987L46.1106 37.9953ZM51.2812 23.5534L54.116 6.27096C54.3908 8.34006 55.0778 12.7918 55.434 14.8096L56.9436 23.5553H51.2812V23.5534ZM134.579 0.00285457V0.531054H132.722V19.4095L138.274 5.46155C139.151 3.05995 139.184 2.02065 138.719 1.25115C138.233 0.525762 137.563 0.528082 136.797 0.530731C136.75 0.530892 136.703 0.531054 136.656 0.531054V0.00285457H143.466V0.531054C140.99 0.964254 140.319 1.87625 139.339 4.66165L136.235 12.7101L143.613 37.4708H145.159V37.999H136.293V37.4708H138.153L132.722 19.9851V37.4708H134.011V37.999H125.246V37.4708H127.103V0.531054H125.246V0.00285457H134.579ZM175.501 38V37.4718H173.854V0.5282H175.501V0H166.85V0.5282H168.497V37.4718H166.85V38H175.501Z" fill="black"/>
<path d="M51.9861 45.706V54H53.0201V49.93H55.9021V48.984H53.0201V46.652H56.0011V45.706H51.9861ZM60.8388 54H61.9498L62.8958 51.921H66.7018L67.6478 54H68.7588L64.7988 45.354L60.8388 54ZM64.7988 47.62L66.2728 50.975H63.3248L64.7988 47.62ZM77.3291 45.53C75.9981 45.53 74.8871 46.388 74.8871 47.675C74.8871 48.841 75.7891 49.391 76.6911 49.776L77.2631 50.018C78.2971 50.458 78.6931 50.876 78.6931 51.591C78.6931 52.504 78.0111 53.208 77.1641 53.208C76.3061 53.208 75.5581 52.592 75.5581 51.635L74.5131 51.855C74.7111 53.263 75.7891 54.176 77.0761 54.176C78.4841 54.176 79.7271 53.164 79.7271 51.591C79.7271 50.513 79.2211 49.688 77.6701 49.094L77.0651 48.863C76.3281 48.588 75.9211 48.203 75.9211 47.675C75.9211 46.96 76.6251 46.498 77.3071 46.498C77.9341 46.498 78.3301 46.762 78.6381 47.279L79.4631 46.784C79.0121 45.981 78.2531 45.53 77.3291 45.53ZM86.2733 45.706V54H87.3073V50.018H91.2563V54H92.2903V45.706H91.2563V49.05H87.3073V45.706H86.2733ZM99.2512 45.706V54H100.285V45.706H99.2512ZM111.103 45.53C108.705 45.53 106.758 47.499 106.758 49.853C106.758 52.306 108.694 54.176 111.103 54.176C113.556 54.176 115.448 52.251 115.448 49.853C115.448 47.378 113.391 45.53 111.103 45.53ZM107.792 49.853C107.792 47.95 109.244 46.498 111.092 46.498C113.028 46.498 114.414 48.005 114.414 49.853C114.414 51.756 112.874 53.208 111.103 53.208C109.332 53.208 107.792 51.756 107.792 49.853ZM121.851 54H122.885V47.818L129.111 54.341V45.706H128.077V51.833L121.851 45.31V54Z" fill="black"/>
</svg>
