<svg width="25" height="24" viewBox="0 0 25 24" fill="none" xmlns="http://www.w3.org/2000/svg">
<g clip-path="url(#clip0_5275_22673)">
<circle cx="12.5" cy="12" r="12" fill="#F0FAF2"/>
<path d="M3.2538 13.1813C3.24325 13.156 3.23361 13.1324 3.22487 13.1107C3.2363 13.0868 3.24897 13.0608 3.26291 13.0325C3.34613 12.8641 3.47409 12.6202 3.6498 12.326C4.00173 11.7367 4.54229 10.9506 5.29459 10.1656C6.79618 8.59867 9.12807 7.04688 12.5018 7.04688C15.8755 7.04688 18.2074 8.59867 19.709 10.1656C20.4613 10.9506 21.0018 11.7367 21.3538 12.326C21.5295 12.6202 21.6574 12.8641 21.7406 13.0325C21.7546 13.0608 21.7673 13.0868 21.7787 13.1107C21.7699 13.1324 21.7603 13.156 21.7498 13.1813C21.6803 13.3479 21.5716 13.5897 21.4175 13.8817C21.1089 14.4665 20.6209 15.2473 19.9059 16.0272C18.4837 17.5787 16.1566 19.1378 12.5018 19.1378C8.84694 19.1378 6.51982 17.5787 5.09763 16.0272C4.38268 15.2473 3.89466 14.4665 3.58601 13.8817C3.43191 13.5897 3.32321 13.3479 3.2538 13.1813ZM21.8458 12.9335C21.8459 12.9334 21.8459 12.9334 21.8459 12.9335L21.8458 12.9335Z" fill="white" stroke="#223330"/>
<mask id="path-3-inside-1_5275_22673" fill="white">
<path d="M16.864 13.0902C16.864 12.1296 16.547 11.1959 15.9623 10.4338C15.3775 9.6717 14.5576 9.12387 13.6297 8.87525C12.7019 8.62663 11.7179 8.69112 10.8305 9.05872C9.943 9.42632 9.20163 10.0765 8.72134 10.9084C8.24104 11.7403 8.04867 12.7074 8.17405 13.6598C8.29943 14.6121 8.73556 15.4965 9.4148 16.1758C10.094 16.855 10.9784 17.2911 11.9308 17.4165C12.8832 17.5419 13.8503 17.3495 14.6822 16.8692L12.5004 13.0902H16.864Z"/>
</mask>
<path d="M16.864 13.0902C16.864 12.1296 16.547 11.1959 15.9623 10.4338C15.3775 9.6717 14.5576 9.12387 13.6297 8.87525C12.7019 8.62663 11.7179 8.69112 10.8305 9.05872C9.943 9.42632 9.20163 10.0765 8.72134 10.9084C8.24104 11.7403 8.04867 12.7074 8.17405 13.6598C8.29943 14.6121 8.73556 15.4965 9.4148 16.1758C10.094 16.855 10.9784 17.2911 11.9308 17.4165C12.8832 17.5419 13.8503 17.3495 14.6822 16.8692L12.5004 13.0902H16.864Z" fill="#F0FAF2" stroke="#223330" stroke-width="2" stroke-linejoin="round" mask="url(#path-3-inside-1_5275_22673)"/>
<path d="M8.13459 4.36328L9.2255 7.63601M16.8619 4.36328L15.771 7.63601M22.3164 7.63601L19.5891 9.81783M2.68004 7.63601L5.40732 9.81783" stroke="#223330"/>
</g>
<defs>
<clipPath id="clip0_5275_22673">
<rect width="24" height="24" fill="white" transform="translate(0.5)"/>
</clipPath>
</defs>
</svg>
