<svg width="12" height="12" viewBox="0 0 12 12" fill="none" xmlns="http://www.w3.org/2000/svg">
<path d="M2.42426 3.57574C2.18995 3.34142 1.81005 3.34142 1.57574 3.57574C1.34142 3.81005 1.34142 4.18995 1.57574 4.42426L2.42426 3.57574ZM6 8L5.57574 8.42426L6 8.84853L6.42426 8.42426L6 8ZM10.4243 4.42426C10.6586 4.18995 10.6586 3.81005 10.4243 3.57574C10.1899 3.34142 9.81005 3.34142 9.57574 3.57574L10.4243 4.42426ZM1.57574 4.42426L5.57574 8.42426L6.42426 7.57574L2.42426 3.57574L1.57574 4.42426ZM6.42426 8.42426L10.4243 4.42426L9.57574 3.57574L5.57574 7.57574L6.42426 8.42426Z" fill="#0F0D1A"/>
</svg>
